<svg xmlns="http://www.w3.org/2000/svg" viewBox="0 0 760 340" width="760" height="340" font-family="monospace">
  <!-- Background -->
  <rect width="760" height="340" fill="#0d1117" rx="8"/>
  <text x="380" y="24" fill="#e6edf3" font-size="13" font-weight="bold" text-anchor="middle">Critical Path to v1.0.0</text>

  <!-- Helper: arrow marker -->
  <defs>
    <marker id="arr" markerWidth="6" markerHeight="6" refX="3" refY="3" orient="auto">
      <path d="M0,0 L6,3 L0,6 Z" fill="#8b949e"/>
    </marker>
    <marker id="arr-g" markerWidth="6" markerHeight="6" refX="3" refY="3" orient="auto">
      <path d="M0,0 L6,3 L0,6 Z" fill="#3fb950"/>
    </marker>
  </defs>

  <!-- ROW 1: Epics A+B completed -->
  <!-- Epic A box -->
  <rect x="20" y="45" width="120" height="36" fill="#1f6feb" rx="4"/>
  <text x="80" y="60" fill="#fff" font-size="10" font-weight="bold" text-anchor="middle">Epic A ✅</text>
  <text x="80" y="74" fill="#cae8ff" font-size="9" text-anchor="middle">Hygiene + Tests (13)</text>

  <!-- Epic B box -->
  <rect x="170" y="45" width="120" height="36" fill="#1f6feb" rx="4"/>
  <text x="230" y="60" fill="#fff" font-size="10" font-weight="bold" text-anchor="middle">Epic B ✅</text>
  <text x="230" y="74" fill="#cae8ff" font-size="9" text-anchor="middle">Behavior Gaps (12)</text>

  <!-- Arrow A→C -->
  <line x1="140" y1="63" x2="320" y2="63" stroke="#8b949e" stroke-width="1.5" marker-end="url(#arr)"/>
  <!-- Arrow B→C -->
  <line x1="290" y1="63" x2="320" y2="105" stroke="#8b949e" stroke-width="1.5" marker-end="url(#arr)"/>

  <!-- ROW 2: Epic C -->
  <rect x="320" y="45" width="160" height="36" fill="#238636" rx="4"/>
  <text x="400" y="60" fill="#fff" font-size="10" font-weight="bold" text-anchor="middle">Epic C ✅</text>
  <text x="400" y="74" fill="#a7f3d0" font-size="9" text-anchor="middle">Alloc Discipline (5 stories)</text>

  <!-- Stories within C -->
  <text x="320" y="95" fill="#3fb950" font-size="9">021 pooled buf · 022 ctx-data · 023 pool.go</text>
  <text x="320" y="107" fill="#3fb950" font-size="9">024 LogEvent copy · 037 M3 bench baseline</text>

  <!-- Arrow C→D -->
  <line x1="480" y1="63" x2="560" y2="63" stroke="#3fb950" stroke-width="2" marker-end="url(#arr-g)"/>

  <!-- ROW 2: Epic D -->
  <rect x="560" y="45" width="175" height="36" fill="#238636" rx="4"/>
  <text x="648" y="60" fill="#fff" font-size="10" font-weight="bold" text-anchor="middle">Epic D ✅</text>
  <text x="648" y="74" fill="#a7f3d0" font-size="9" text-anchor="middle">Lifecycle (6 stories)</text>

  <!-- Stories within D -->
  <text x="560" y="95" fill="#3fb950" font-size="9">025 Stop drain · 026 atomic flush · 027 Shutdown</text>
  <text x="560" y="107" fill="#3fb950" font-size="9">028 zero-config · 035 race tests · 036 integration</text>

  <!-- Arrow D→E -->
  <line x1="648" y1="81" x2="648" y2="145" stroke="#3fb950" stroke-width="2" marker-end="url(#arr-g)"/>

  <!-- ROW 3: Epic E stories -->
  <rect x="100" y="150" width="120" height="32" fill="#238636" rx="4"/>
  <text x="160" y="163" fill="#fff" font-size="10" font-weight="bold" text-anchor="middle">029 ✅</text>
  <text x="160" y="175" fill="#a7f3d0" font-size="9" text-anchor="middle">CI -shuffle=on</text>

  <rect x="250" y="150" width="120" height="32" fill="#238636" rx="4"/>
  <text x="310" y="163" fill="#fff" font-size="10" font-weight="bold" text-anchor="middle">030 ✅</text>
  <text x="310" y="175" fill="#a7f3d0" font-size="9" text-anchor="middle">Coverage ≥ 85%</text>

  <rect x="400" y="150" width="120" height="32" fill="#238636" rx="4"/>
  <text x="460" y="163" fill="#fff" font-size="10" font-weight="bold" text-anchor="middle">031 ✅</text>
  <text x="460" y="175" fill="#a7f3d0" font-size="9" text-anchor="middle">README + hooks doc</text>

  <!-- Arrows to E stories -->
  <line x1="100" y1="149" x2="160" y2="149" stroke="#3fb950" stroke-width="1.5" marker-end="url(#arr-g)"/>
  <line x1="220" y1="166" x2="250" y2="166" stroke="#3fb950" stroke-width="1.5" marker-end="url(#arr-g)"/>
  <line x1="370" y1="166" x2="400" y2="166" stroke="#3fb950" stroke-width="1.5" marker-end="url(#arr-g)"/>
  <line x1="648" y1="145" x2="460" y2="150" stroke="#3fb950" stroke-width="1.5" marker-end="url(#arr-g)"/>

  <!-- ROW 4: 032 release -->
  <line x1="160" y1="182" x2="300" y2="240" stroke="#3fb950" stroke-width="1.5" marker-end="url(#arr-g)"/>
  <line x1="310" y1="182" x2="340" y2="240" stroke="#3fb950" stroke-width="1.5" marker-end="url(#arr-g)"/>
  <line x1="460" y1="182" x2="380" y2="240" stroke="#3fb950" stroke-width="1.5" marker-end="url(#arr-g)"/>

  <rect x="270" y="245" width="220" height="44" fill="#d29922" rx="6" stroke="#f0c040" stroke-width="2"/>
  <text x="380" y="263" fill="#fff" font-size="13" font-weight="bold" text-anchor="middle">032 — release/v1.0.0 🚀</text>
  <text x="380" y="280" fill="#fff" font-size="10" text-anchor="middle">⏳ NEXT — cut tag, merge to main</text>

  <!-- Done label -->
  <text x="380" y="315" fill="#8b949e" font-size="10" text-anchor="middle">39 / 40 stories complete  ·  Last updated: 2026-05-18</text>
  <text x="380" y="330" fill="#3fb950" font-size="10" text-anchor="middle">■ = complete   □ = pending</text>
</svg>
